<?xml version="1.0" encoding="utf-8"?>
<!-- Generator: Adobe Illustrator 23.0.3, SVG Export Plug-In . SVG Version: 6.00 Build 0)  -->
<svg version="1.1" id="Layer_1" xmlns="http://www.w3.org/2000/svg" xmlns:xlink="http://www.w3.org/1999/xlink" x="0px" y="0px"
	 viewBox="0 0 1319.36 113.59" style="enable-background:new 0 0 1319.36 113.59;" xml:space="preserve">
<style type="text/css">
	.st0{fill:#294270;}
	.st1{fill:#F0801A;}
</style>
<g>
	<path class="st0" d="M38.66,24.29h-8.67v65.6h8.67v5.96H23.13V18.33h15.54V24.29z"/>
	<path class="st0" d="M64.05,54.97l2.86-28.48h29.31v7.06H73.03l-1.61,15.22c1.12-0.65,2.47-1.23,4.04-1.73
		c1.57-0.5,3.39-0.75,5.45-0.75c2.64,0,5.01,0.46,7.1,1.37c2.09,0.92,3.87,2.2,5.34,3.86c1.46,1.66,2.59,3.67,3.37,6.02
		c0.78,2.35,1.18,4.97,1.18,7.85c0,2.72-0.37,5.24-1.1,7.57c-0.73,2.33-1.84,4.34-3.32,6.02c-1.48,1.69-3.34,3.01-5.59,3.96
		c-2.25,0.95-4.89,1.43-7.93,1.43c-2.33,0-4.53-0.33-6.59-0.98c-2.07-0.65-3.9-1.63-5.51-2.94c-1.61-1.31-2.93-2.96-3.96-4.94
		c-1.03-1.99-1.68-4.3-1.94-6.94h6.91c0.44,3.24,1.64,5.7,3.59,7.38c1.95,1.67,4.45,2.51,7.51,2.51c1.73,0,3.26-0.31,4.59-0.92
		c1.33-0.61,2.45-1.49,3.35-2.63c0.9-1.14,1.58-2.5,2.04-4.1c0.46-1.6,0.69-3.37,0.69-5.34c0-1.78-0.26-3.44-0.77-4.98
		s-1.25-2.88-2.22-4.02c-0.97-1.14-2.16-2.03-3.57-2.69c-1.41-0.65-3.03-0.98-4.87-0.98c-1.2,0-2.24,0.08-3.12,0.26
		c-0.88,0.17-1.67,0.41-2.37,0.73c-0.71,0.31-1.37,0.69-1.98,1.14c-0.61,0.44-1.25,0.95-1.9,1.53L64.05,54.97z"/>
	<path class="st0" d="M128.08,81.93c0,1.23-0.15,2.52-0.45,3.86c-0.3,1.35-0.75,2.68-1.33,4c-0.59,1.32-1.3,2.58-2.14,3.79
		c-0.84,1.2-1.8,2.28-2.9,3.22l-4.51-2.47c1.26-1.83,2.15-3.78,2.67-5.85c0.52-2.07,0.78-4.21,0.78-6.44v-7.02h7.89V81.93z"/>
	<path class="st0" d="M160.49,54.97l2.86-28.48h29.31v7.06h-23.19l-1.61,15.22c1.12-0.65,2.47-1.23,4.04-1.73
		c1.57-0.5,3.39-0.75,5.45-0.75c2.64,0,5.01,0.46,7.1,1.37c2.09,0.92,3.87,2.2,5.34,3.86c1.46,1.66,2.59,3.67,3.37,6.02
		c0.78,2.35,1.18,4.97,1.18,7.85c0,2.72-0.37,5.24-1.1,7.57c-0.73,2.33-1.84,4.34-3.32,6.02c-1.48,1.69-3.34,3.01-5.59,3.96
		c-2.25,0.95-4.89,1.43-7.93,1.43c-2.33,0-4.53-0.33-6.59-0.98c-2.07-0.65-3.9-1.63-5.51-2.94c-1.61-1.31-2.93-2.96-3.96-4.94
		c-1.03-1.99-1.68-4.3-1.94-6.94h6.91c0.44,3.24,1.64,5.7,3.59,7.38c1.95,1.67,4.45,2.51,7.51,2.51c1.73,0,3.26-0.31,4.59-0.92
		c1.33-0.61,2.45-1.49,3.35-2.63c0.9-1.14,1.58-2.5,2.04-4.1c0.46-1.6,0.69-3.37,0.69-5.34c0-1.78-0.26-3.44-0.77-4.98
		s-1.25-2.88-2.22-4.02c-0.97-1.14-2.16-2.03-3.57-2.69c-1.41-0.65-3.03-0.98-4.87-0.98c-1.2,0-2.24,0.08-3.12,0.26
		c-0.88,0.17-1.67,0.41-2.37,0.73c-0.71,0.31-1.37,0.69-1.98,1.14c-0.61,0.44-1.25,0.95-1.9,1.53L160.49,54.97z"/>
	<path class="st0" d="M224.52,81.93c0,1.23-0.15,2.52-0.45,3.86c-0.3,1.35-0.75,2.68-1.33,4c-0.59,1.32-1.3,2.58-2.14,3.79
		c-0.84,1.2-1.8,2.28-2.9,3.22l-4.51-2.47c1.26-1.83,2.15-3.78,2.67-5.85c0.52-2.07,0.78-4.21,0.78-6.44v-7.02h7.89V81.93z"/>
	<path class="st0" d="M256.93,54.97l2.86-28.48h29.31v7.06h-23.19l-1.61,15.22c1.12-0.65,2.47-1.23,4.04-1.73
		c1.57-0.5,3.39-0.75,5.45-0.75c2.64,0,5.01,0.46,7.1,1.37c2.09,0.92,3.87,2.2,5.34,3.86c1.46,1.66,2.59,3.67,3.37,6.02
		c0.78,2.35,1.18,4.97,1.18,7.85c0,2.72-0.37,5.24-1.1,7.57c-0.73,2.33-1.84,4.34-3.32,6.02c-1.48,1.69-3.34,3.01-5.59,3.96
		c-2.25,0.95-4.89,1.43-7.93,1.43c-2.33,0-4.53-0.33-6.59-0.98c-2.07-0.65-3.9-1.63-5.51-2.94c-1.61-1.31-2.93-2.96-3.96-4.94
		c-1.03-1.99-1.68-4.3-1.94-6.94h6.91c0.44,3.24,1.64,5.7,3.59,7.38c1.95,1.67,4.45,2.51,7.51,2.51c1.73,0,3.26-0.31,4.59-0.92
		c1.33-0.61,2.45-1.49,3.35-2.63c0.9-1.14,1.58-2.5,2.04-4.1c0.46-1.6,0.69-3.37,0.69-5.34c0-1.78-0.26-3.44-0.77-4.98
		s-1.25-2.88-2.22-4.02c-0.97-1.14-2.16-2.03-3.57-2.69c-1.41-0.65-3.03-0.98-4.87-0.98c-1.2,0-2.24,0.08-3.12,0.26
		c-0.88,0.17-1.67,0.41-2.37,0.73c-0.71,0.31-1.37,0.69-1.98,1.14c-0.61,0.44-1.25,0.95-1.9,1.53L256.93,54.97z"/>
	<path class="st0" d="M320.96,81.93c0,1.23-0.15,2.52-0.45,3.86c-0.3,1.35-0.75,2.68-1.33,4c-0.59,1.32-1.3,2.58-2.14,3.79
		c-0.84,1.2-1.8,2.28-2.9,3.22l-4.51-2.47c1.26-1.83,2.15-3.78,2.67-5.85c0.52-2.07,0.78-4.21,0.78-6.44v-7.02h7.89V81.93z"/>
	<path class="st0" d="M380.2,64.43h7.96v5.92h-7.96v13.26h-7.26V70.35h-26.05v-4.28l25.58-39.59h7.73V64.43z M354.93,64.43h18.01
		V36.14l-1.18,2.2L354.93,64.43z"/>
	<path class="st0" d="M417.4,81.93c0,1.23-0.15,2.52-0.45,3.86c-0.3,1.35-0.75,2.68-1.33,4c-0.59,1.32-1.3,2.58-2.14,3.79
		c-0.84,1.2-1.8,2.28-2.9,3.22l-4.51-2.47c1.26-1.83,2.15-3.78,2.67-5.85c0.52-2.07,0.78-4.21,0.78-6.44v-7.02h7.89V81.93z"/>
	<path class="st0" d="M449.8,54.97l2.86-28.48h29.31v7.06h-23.19l-1.61,15.22c1.12-0.65,2.47-1.23,4.04-1.73
		c1.57-0.5,3.39-0.75,5.45-0.75c2.64,0,5.01,0.46,7.1,1.37c2.09,0.92,3.87,2.2,5.33,3.86c1.46,1.66,2.59,3.67,3.37,6.02
		c0.79,2.35,1.18,4.97,1.18,7.85c0,2.72-0.37,5.24-1.1,7.57c-0.73,2.33-1.84,4.34-3.32,6.02c-1.48,1.69-3.34,3.01-5.59,3.96
		c-2.25,0.95-4.89,1.43-7.93,1.43c-2.33,0-4.52-0.33-6.59-0.98c-2.07-0.65-3.91-1.63-5.51-2.94c-1.61-1.31-2.93-2.96-3.96-4.94
		c-1.03-1.99-1.68-4.3-1.94-6.94h6.91c0.44,3.24,1.64,5.7,3.59,7.38c1.95,1.67,4.45,2.51,7.51,2.51c1.73,0,3.26-0.31,4.59-0.92
		c1.33-0.61,2.45-1.49,3.36-2.63c0.9-1.14,1.58-2.5,2.04-4.1c0.46-1.6,0.69-3.37,0.69-5.34c0-1.78-0.26-3.44-0.77-4.98
		c-0.51-1.54-1.25-2.88-2.22-4.02c-0.97-1.14-2.16-2.03-3.57-2.69c-1.41-0.65-3.04-0.98-4.86-0.98c-1.2,0-2.25,0.08-3.12,0.26
		c-0.88,0.17-1.67,0.41-2.38,0.73c-0.71,0.31-1.37,0.69-1.98,1.14c-0.62,0.44-1.25,0.95-1.9,1.53L449.8,54.97z"/>
	<path class="st0" d="M513.84,81.93c0,1.23-0.15,2.52-0.45,3.86c-0.3,1.35-0.74,2.68-1.33,4c-0.59,1.32-1.3,2.58-2.14,3.79
		c-0.84,1.2-1.81,2.28-2.9,3.22l-4.51-2.47c1.26-1.83,2.14-3.78,2.67-5.85c0.52-2.07,0.79-4.21,0.79-6.44v-7.02h7.89V81.93z"/>
	<path class="st0" d="M570.41,26.45v6.51h-0.63c-2.41,0-4.56,0.25-6.45,0.74c-1.9,0.5-3.56,1.18-5,2.04
		c-1.44,0.86-2.67,1.89-3.71,3.08c-1.03,1.19-1.89,2.49-2.57,3.9c-0.68,1.41-1.2,2.89-1.57,4.43c-0.37,1.54-0.6,3.11-0.71,4.71
		c0.68-0.81,1.46-1.56,2.35-2.26c0.89-0.69,1.85-1.3,2.88-1.81c1.03-0.51,2.14-0.92,3.34-1.22c1.19-0.3,2.44-0.45,3.75-0.45
		c2.85,0,5.31,0.54,7.38,1.63c2.07,1.09,3.77,2.52,5.1,4.3c1.33,1.78,2.32,3.79,2.94,6.04c0.63,2.25,0.94,4.54,0.94,6.87
		c0,2.67-0.37,5.18-1.12,7.53c-0.74,2.35-1.86,4.41-3.35,6.18c-1.49,1.77-3.34,3.16-5.55,4.18c-2.21,1.02-4.77,1.53-7.67,1.53
		c-2.07,0-3.96-0.3-5.67-0.9c-1.71-0.6-3.25-1.42-4.61-2.45c-1.36-1.03-2.55-2.26-3.57-3.67c-1.02-1.41-1.86-2.93-2.53-4.55
		c-0.67-1.62-1.17-3.31-1.51-5.06c-0.34-1.75-0.51-3.5-0.51-5.26v-3.41c0-2.62,0.16-5.24,0.49-7.87c0.33-2.63,0.88-5.15,1.67-7.55
		c0.79-2.41,1.84-4.66,3.18-6.77c1.33-2.1,3.02-3.93,5.04-5.47c2.03-1.54,4.44-2.76,7.24-3.65c2.8-0.89,6.07-1.33,9.81-1.33H570.41z
		 M560.92,52.19c-1.23,0-2.42,0.2-3.57,0.59c-1.15,0.39-2.22,0.94-3.22,1.65c-0.99,0.71-1.87,1.56-2.63,2.55
		c-0.76,0.99-1.36,2.09-1.81,3.3v2.43c0,2.51,0.3,4.74,0.9,6.69c0.6,1.95,1.41,3.59,2.43,4.92c1.02,1.33,2.2,2.35,3.53,3.04
		c1.33,0.69,2.73,1.04,4.2,1.04c1.7,0,3.2-0.33,4.51-0.98c1.31-0.65,2.41-1.56,3.32-2.71c0.9-1.15,1.58-2.53,2.04-4.14
		c0.46-1.61,0.69-3.35,0.69-5.24c0-1.67-0.21-3.3-0.63-4.88c-0.42-1.58-1.06-2.99-1.92-4.22c-0.86-1.23-1.95-2.21-3.26-2.94
		C564.2,52.55,562.67,52.19,560.92,52.19z"/>
	<path class="st0" d="M610.27,81.93c0,1.23-0.15,2.52-0.45,3.86c-0.3,1.35-0.74,2.68-1.33,4c-0.59,1.32-1.3,2.58-2.14,3.79
		c-0.84,1.2-1.81,2.28-2.9,3.22l-4.51-2.47c1.26-1.83,2.14-3.78,2.67-5.85c0.52-2.07,0.79-4.21,0.79-6.44v-7.02h7.89V81.93z"/>
	<path class="st0" d="M666.85,26.45v6.51h-0.63c-2.41,0-4.56,0.25-6.45,0.74c-1.9,0.5-3.56,1.18-5,2.04
		c-1.44,0.86-2.67,1.89-3.71,3.08c-1.03,1.19-1.89,2.49-2.57,3.9c-0.68,1.41-1.2,2.89-1.57,4.43c-0.37,1.54-0.6,3.11-0.71,4.71
		c0.68-0.81,1.46-1.56,2.35-2.26c0.89-0.69,1.85-1.3,2.88-1.81c1.03-0.51,2.14-0.92,3.34-1.22c1.19-0.3,2.44-0.45,3.75-0.45
		c2.85,0,5.31,0.54,7.38,1.63c2.07,1.09,3.77,2.52,5.1,4.3c1.33,1.78,2.32,3.79,2.94,6.04c0.63,2.25,0.94,4.54,0.94,6.87
		c0,2.67-0.37,5.18-1.12,7.53c-0.74,2.35-1.86,4.41-3.35,6.18c-1.49,1.77-3.34,3.16-5.55,4.18c-2.21,1.02-4.77,1.53-7.67,1.53
		c-2.07,0-3.96-0.3-5.67-0.9c-1.71-0.6-3.25-1.42-4.61-2.45c-1.36-1.03-2.55-2.26-3.57-3.67c-1.02-1.41-1.86-2.93-2.53-4.55
		c-0.67-1.62-1.17-3.31-1.51-5.06c-0.34-1.75-0.51-3.5-0.51-5.26v-3.41c0-2.62,0.16-5.24,0.49-7.87c0.33-2.63,0.88-5.15,1.67-7.55
		c0.79-2.41,1.84-4.66,3.18-6.77c1.33-2.1,3.02-3.93,5.04-5.47c2.03-1.54,4.44-2.76,7.24-3.65c2.8-0.89,6.07-1.33,9.81-1.33H666.85z
		 M657.36,52.19c-1.23,0-2.42,0.2-3.57,0.59c-1.15,0.39-2.22,0.94-3.22,1.65c-0.99,0.71-1.87,1.56-2.63,2.55
		c-0.76,0.99-1.36,2.09-1.81,3.3v2.43c0,2.51,0.3,4.74,0.9,6.69c0.6,1.95,1.41,3.59,2.43,4.92c1.02,1.33,2.2,2.35,3.53,3.04
		c1.33,0.69,2.73,1.04,4.2,1.04c1.7,0,3.2-0.33,4.51-0.98c1.31-0.65,2.41-1.56,3.32-2.71c0.9-1.15,1.58-2.53,2.04-4.14
		c0.46-1.61,0.69-3.35,0.69-5.24c0-1.67-0.21-3.3-0.63-4.88c-0.42-1.58-1.06-2.99-1.92-4.22c-0.86-1.23-1.95-2.21-3.26-2.94
		C660.64,52.55,659.11,52.19,657.36,52.19z"/>
	<path class="st0" d="M706.71,81.93c0,1.23-0.15,2.52-0.45,3.86c-0.3,1.35-0.74,2.68-1.33,4c-0.59,1.32-1.3,2.58-2.14,3.79
		c-0.84,1.2-1.81,2.28-2.9,3.22l-4.51-2.47c1.26-1.83,2.14-3.78,2.67-5.85c0.52-2.07,0.79-4.21,0.79-6.44v-7.02h7.89V81.93z"/>
	<path class="st0" d="M739.12,54.97l2.86-28.48h29.31v7.06h-23.19l-1.61,15.22c1.12-0.65,2.47-1.23,4.04-1.73
		c1.57-0.5,3.39-0.75,5.45-0.75c2.64,0,5.01,0.46,7.1,1.37c2.09,0.92,3.87,2.2,5.34,3.86c1.46,1.66,2.59,3.67,3.37,6.02
		c0.79,2.35,1.18,4.97,1.18,7.85c0,2.72-0.37,5.24-1.1,7.57c-0.73,2.33-1.84,4.34-3.32,6.02c-1.48,1.69-3.34,3.01-5.59,3.96
		c-2.25,0.95-4.89,1.43-7.93,1.43c-2.33,0-4.52-0.33-6.59-0.98c-2.07-0.65-3.9-1.63-5.51-2.94c-1.61-1.31-2.93-2.96-3.96-4.94
		c-1.03-1.99-1.68-4.3-1.94-6.94h6.91c0.44,3.24,1.64,5.7,3.59,7.38c1.95,1.67,4.45,2.51,7.51,2.51c1.73,0,3.26-0.31,4.59-0.92
		c1.33-0.61,2.45-1.49,3.35-2.63c0.9-1.14,1.58-2.5,2.04-4.1c0.46-1.6,0.69-3.37,0.69-5.34c0-1.78-0.26-3.44-0.77-4.98
		s-1.25-2.88-2.22-4.02c-0.97-1.14-2.16-2.03-3.57-2.69c-1.41-0.65-3.03-0.98-4.86-0.98c-1.2,0-2.24,0.08-3.12,0.26
		c-0.88,0.17-1.67,0.41-2.37,0.73c-0.71,0.31-1.37,0.69-1.98,1.14c-0.62,0.44-1.25,0.95-1.9,1.53L739.12,54.97z"/>
	<path class="st0" d="M803.15,81.93c0,1.23-0.15,2.52-0.45,3.86c-0.3,1.35-0.74,2.68-1.33,4c-0.59,1.32-1.3,2.58-2.14,3.79
		c-0.84,1.2-1.81,2.28-2.9,3.22l-4.51-2.47c1.26-1.83,2.14-3.78,2.67-5.85c0.52-2.07,0.79-4.21,0.79-6.44v-7.02h7.89V81.93z"/>
	<path class="st0" d="M835.56,54.97l2.86-28.48h29.31v7.06h-23.19l-1.61,15.22c1.12-0.65,2.47-1.23,4.04-1.73
		c1.57-0.5,3.39-0.75,5.45-0.75c2.64,0,5.01,0.46,7.1,1.37c2.09,0.92,3.87,2.2,5.34,3.86c1.46,1.66,2.59,3.67,3.37,6.02
		c0.79,2.35,1.18,4.97,1.18,7.85c0,2.72-0.37,5.24-1.1,7.57c-0.73,2.33-1.84,4.34-3.32,6.02c-1.48,1.69-3.34,3.01-5.59,3.96
		c-2.25,0.95-4.89,1.43-7.93,1.43c-2.33,0-4.52-0.33-6.59-0.98c-2.07-0.65-3.9-1.63-5.51-2.94c-1.61-1.31-2.93-2.96-3.96-4.94
		c-1.03-1.99-1.68-4.3-1.94-6.94h6.91c0.44,3.24,1.64,5.7,3.59,7.38c1.95,1.67,4.45,2.51,7.51,2.51c1.73,0,3.26-0.31,4.59-0.92
		c1.33-0.61,2.45-1.49,3.35-2.63c0.9-1.14,1.58-2.5,2.04-4.1c0.46-1.6,0.69-3.37,0.69-5.34c0-1.78-0.26-3.44-0.77-4.98
		s-1.25-2.88-2.22-4.02c-0.97-1.14-2.16-2.03-3.57-2.69c-1.41-0.65-3.03-0.98-4.86-0.98c-1.2,0-2.24,0.08-3.12,0.26
		c-0.88,0.17-1.67,0.41-2.37,0.73c-0.71,0.31-1.37,0.69-1.98,1.14c-0.62,0.44-1.25,0.95-1.9,1.53L835.56,54.97z"/>
	<path class="st0" d="M899.59,81.93c0,1.23-0.15,2.52-0.45,3.86c-0.3,1.35-0.74,2.68-1.33,4c-0.59,1.32-1.3,2.58-2.14,3.79
		c-0.84,1.2-1.81,2.28-2.9,3.22l-4.51-2.47c1.26-1.83,2.14-3.78,2.67-5.85c0.52-2.07,0.79-4.21,0.79-6.44v-7.02h7.89V81.93z"/>
	<path class="st0" d="M965.58,30.57l-23.66,53.05h-7.61l23.58-50.77h-30.92v-6.36h38.61V30.57z"/>
	<path class="st0" d="M996.03,81.93c0,1.23-0.15,2.52-0.45,3.86c-0.3,1.35-0.74,2.68-1.33,4c-0.59,1.32-1.3,2.58-2.14,3.79
		c-0.84,1.2-1.81,2.28-2.9,3.22l-4.51-2.47c1.26-1.83,2.14-3.78,2.67-5.85c0.52-2.07,0.79-4.21,0.79-6.44v-7.02h7.89V81.93z"/>
	<path class="st0" d="M1061,41.4c-0.03,2.85-0.8,5.39-2.31,7.61c-1.52,2.22-3.55,3.96-6.08,5.22c1.46,0.63,2.79,1.41,3.98,2.33
		c1.19,0.93,2.21,2,3.06,3.2c0.85,1.2,1.5,2.51,1.96,3.92c0.46,1.41,0.69,2.92,0.69,4.51c0,2.59-0.48,4.89-1.43,6.9
		c-0.95,2.01-2.25,3.71-3.88,5.08c-1.63,1.37-3.55,2.42-5.75,3.14c-2.2,0.72-4.55,1.08-7.06,1.08c-2.56,0-4.95-0.35-7.16-1.06
		c-2.21-0.71-4.13-1.75-5.77-3.12c-1.64-1.37-2.92-3.07-3.87-5.08c-0.94-2.01-1.41-4.33-1.41-6.94c0-1.6,0.22-3.11,0.67-4.53
		c0.44-1.43,1.09-2.73,1.92-3.92c0.84-1.19,1.84-2.26,3.02-3.2c1.18-0.94,2.5-1.73,3.96-2.35c-1.26-0.63-2.39-1.38-3.41-2.26
		c-1.02-0.88-1.88-1.86-2.59-2.94c-0.71-1.08-1.25-2.27-1.65-3.55c-0.39-1.28-0.59-2.63-0.59-4.04c0-2.48,0.42-4.7,1.25-6.65
		c0.84-1.95,1.99-3.59,3.47-4.92c1.48-1.33,3.24-2.35,5.3-3.06c2.05-0.71,4.3-1.06,6.73-1.06c2.41,0,4.64,0.35,6.71,1.06
		c2.07,0.71,3.86,1.73,5.38,3.06c1.52,1.33,2.71,2.98,3.57,4.92S1061,38.91,1061,41.4z M1055.04,68.04c0-1.6-0.27-3.06-0.8-4.39
		c-0.54-1.33-1.29-2.48-2.26-3.43c-0.97-0.95-2.13-1.69-3.47-2.22c-1.35-0.52-2.82-0.78-4.41-0.78c-1.65,0-3.14,0.26-4.47,0.78
		c-1.33,0.52-2.47,1.26-3.41,2.22c-0.94,0.96-1.67,2.1-2.18,3.43c-0.51,1.33-0.77,2.8-0.77,4.39c0,1.65,0.26,3.12,0.77,4.41
		c0.51,1.29,1.24,2.39,2.18,3.28c0.94,0.89,2.09,1.57,3.43,2.04c1.35,0.47,2.86,0.71,4.53,0.71c1.6,0,3.06-0.24,4.39-0.71
		c1.33-0.47,2.48-1.15,3.43-2.04c0.95-0.89,1.7-1.98,2.24-3.28C1054.77,71.16,1055.04,69.68,1055.04,68.04z M1053.71,41.51
		c0-1.44-0.24-2.76-0.73-3.96c-0.48-1.2-1.15-2.24-2-3.12c-0.85-0.88-1.86-1.56-3.04-2.04c-1.18-0.48-2.47-0.73-3.88-0.73
		s-2.69,0.23-3.85,0.69c-1.15,0.46-2.14,1.12-2.98,1.98c-0.84,0.86-1.48,1.9-1.94,3.12c-0.46,1.22-0.69,2.57-0.69,4.06
		s0.23,2.83,0.69,4.02c0.46,1.19,1.11,2.21,1.96,3.06c0.85,0.85,1.86,1.5,3.02,1.96c1.16,0.46,2.45,0.69,3.87,0.69
		c1.39,0,2.67-0.23,3.84-0.69c1.18-0.46,2.19-1.11,3.04-1.96c0.85-0.85,1.51-1.88,1.98-3.08
		C1053.47,44.31,1053.71,42.98,1053.71,41.51z"/>
	<path class="st0" d="M1092.47,81.93c0,1.23-0.15,2.52-0.45,3.86c-0.3,1.35-0.74,2.68-1.33,4c-0.59,1.32-1.3,2.58-2.14,3.79
		c-0.84,1.2-1.81,2.28-2.9,3.22l-4.51-2.47c1.26-1.83,2.14-3.78,2.67-5.85c0.52-2.07,0.79-4.21,0.79-6.44v-7.02h7.89V81.93z"/>
	<path class="st0" d="M1158.15,61.76c0,3.64-0.42,6.86-1.26,9.67c-0.84,2.81-2.04,5.18-3.61,7.1c-1.57,1.92-3.49,3.38-5.77,4.37
		c-2.28,0.99-4.88,1.49-7.81,1.49c-2.9,0-5.5-0.5-7.79-1.49c-2.29-0.99-4.23-2.45-5.83-4.37c-1.6-1.92-2.82-4.29-3.67-7.1
		c-0.85-2.81-1.28-6.04-1.28-9.67V48.38c0-3.64,0.42-6.86,1.25-9.67c0.84-2.81,2.05-5.19,3.63-7.12c1.58-1.94,3.52-3.41,5.81-4.41
		c2.29-1.01,4.89-1.51,7.79-1.51c2.93,0,5.54,0.5,7.83,1.51c2.29,1.01,4.22,2.48,5.81,4.41c1.58,1.94,2.79,4.31,3.63,7.12
		c0.84,2.81,1.26,6.04,1.26,9.67V61.76z M1128.45,60.31l22.25-17.07c-0.42-3.79-1.52-6.68-3.32-8.65c-1.79-1.97-4.37-2.96-7.75-2.96
		c-3.82,0-6.64,1.29-8.46,3.86c-1.82,2.58-2.73,6.34-2.73,11.28V60.31z M1150.85,50.18l-22.21,16.99c0.44,3.69,1.58,6.5,3.41,8.44
		c1.83,1.94,4.38,2.9,7.65,2.9c3.85,0,6.66-1.31,8.46-3.92c1.79-2.62,2.69-6.38,2.69-11.3V50.18z"/>
	<path class="st0" d="M1188.91,81.93c0,1.23-0.15,2.52-0.45,3.86c-0.3,1.35-0.74,2.68-1.33,4c-0.59,1.32-1.3,2.58-2.14,3.79
		c-0.84,1.2-1.81,2.28-2.9,3.22l-4.51-2.47c1.26-1.83,2.14-3.78,2.67-5.85c0.52-2.07,0.79-4.21,0.79-6.44v-7.02h7.89V81.93z"/>
	<path class="st0" d="M1254.59,61.76c0,3.64-0.42,6.86-1.26,9.67c-0.84,2.81-2.04,5.18-3.61,7.1c-1.57,1.92-3.49,3.38-5.77,4.37
		c-2.28,0.99-4.88,1.49-7.81,1.49c-2.9,0-5.5-0.5-7.79-1.49c-2.29-0.99-4.23-2.45-5.83-4.37c-1.6-1.92-2.82-4.29-3.67-7.1
		c-0.85-2.81-1.28-6.04-1.28-9.67V48.38c0-3.64,0.42-6.86,1.25-9.67c0.84-2.81,2.05-5.19,3.63-7.12c1.58-1.94,3.52-3.41,5.81-4.41
		c2.29-1.01,4.89-1.51,7.79-1.51c2.93,0,5.54,0.5,7.83,1.51c2.29,1.01,4.22,2.48,5.81,4.41c1.58,1.94,2.79,4.31,3.63,7.12
		c0.84,2.81,1.26,6.04,1.26,9.67V61.76z M1224.89,60.31l22.25-17.07c-0.42-3.79-1.52-6.68-3.32-8.65c-1.79-1.97-4.37-2.96-7.75-2.96
		c-3.82,0-6.64,1.29-8.46,3.86c-1.82,2.58-2.73,6.34-2.73,11.28V60.31z M1247.29,50.18l-22.21,16.99c0.44,3.69,1.58,6.5,3.41,8.44
		c1.83,1.94,4.38,2.9,7.65,2.9c3.85,0,6.66-1.31,8.46-3.92c1.79-2.62,2.69-6.38,2.69-11.3V50.18z"/>
	<path class="st0" d="M1276.01,18.33h15.58v77.53h-15.58v-5.96h8.71v-65.6h-8.71V18.33z"/>
</g>
<g>
	<rect x="132.6" y="58.28" transform="matrix(0.5 -0.866 0.866 0.5 37.1354 185.8772)" class="st1" width="93.88" height="5"/>
</g>
<g>
	<rect x="222.6" y="58.28" transform="matrix(0.5 -0.866 0.866 0.5 82.135 263.8192)" class="st1" width="93.88" height="5"/>
</g>
<g>
	<rect x="612.6" y="58.28" transform="matrix(0.5 -0.866 0.866 0.5 277.1333 601.5682)" class="st1" width="93.88" height="5"/>
</g>
<g>
	<rect x="811.6" y="58.28" transform="matrix(0.5 -0.866 0.866 0.5 376.6325 773.9068)" class="st1" width="93.88" height="5"/>
</g>
<g>
	<rect x="1189.6" y="58.28" transform="matrix(0.5 -0.866 0.866 0.5 565.6309 1101.2634)" class="st1" width="93.88" height="5"/>
</g>
</svg>
